<svg width="40" height="40" viewBox="0 0 40 40" fill="none" xmlns="http://www.w3.org/2000/svg">
<g filter="url(#filter0_d_5134_4744)">
<rect x="4" y="4" width="32" height="32" rx="16" fill="white" shape-rendering="crispEdges"/>
<path d="M17.9397 25.78C17.8131 25.78 17.6864 25.7333 17.5864 25.6333C17.3931 25.44 17.3931 25.12 17.5864 24.9267L21.9331 20.58C22.2531 20.26 22.2531 19.74 21.9331 19.42L17.5864 15.0733C17.3931 14.88 17.3931 14.56 17.5864 14.3667C17.7797 14.1733 18.0997 14.1733 18.2931 14.3667L22.6397 18.7133C22.9797 19.0533 23.1731 19.5133 23.1731 20C23.1731 20.4867 22.9864 20.9467 22.6397 21.2867L18.2931 25.6333C18.1931 25.7267 18.0664 25.78 17.9397 25.78Z" fill="#1B1F23"/>
</g>
<defs>
<filter id="filter0_d_5134_4744" x="0" y="0" width="40" height="40" filterUnits="userSpaceOnUse" color-interpolation-filters="sRGB">
<feFlood flood-opacity="0" result="BackgroundImageFix"/>
<feColorMatrix in="SourceAlpha" type="matrix" values="0 0 0 0 0 0 0 0 0 0 0 0 0 0 0 0 0 0 127 0" result="hardAlpha"/>
<feOffset/>
<feGaussianBlur stdDeviation="2"/>
<feComposite in2="hardAlpha" operator="out"/>
<feColorMatrix type="matrix" values="0 0 0 0 0 0 0 0 0 0 0 0 0 0 0 0 0 0 0.3 0"/>
<feBlend mode="normal" in2="BackgroundImageFix" result="effect1_dropShadow_5134_4744"/>
<feBlend mode="normal" in="SourceGraphic" in2="effect1_dropShadow_5134_4744" result="shape"/>
</filter>
</defs>
</svg>
